<?xml version="1.0" encoding="UTF-8"?>
<!-- Generator: Adobe Illustrator 16.0.0, SVG Export Plug-In . SVG Version: 6.00 Build 0)  -->
<!DOCTYPE svg PUBLIC "-//W3C//DTD SVG 1.1//EN" "http://www.w3.org/Graphics/SVG/1.1/DTD/svg11.dtd">
<svg version="1.1" id="Ebene_3" xmlns="http://www.w3.org/2000/svg" xmlns:xlink="http://www.w3.org/1999/xlink" x="0px" y="0px" width="46.971px" height="47.867px" viewBox="0 0 46.971 47.867" enable-background="new 0 0 46.971 47.867" xml:space="preserve">
<path fill="#37414E" d="M46.854,48.021c-0.362-2.246-1.303-7.972-1.641-9.399c-0.42-1.788-1.685-2.315-1.685-2.315l-14.058-5.14  l-5.991,4.948l-6.366-5.015c0,0-11.473,4.259-13.155,4.891c-1.684,0.632-1.789,2.104-1.789,2.104l-2.023,9.926H46.854z"/>
<polygon fill="#DBA77C" points="17.114,24.538 17.114,31.101 23.486,36.767 29.471,31.167 29.471,24.011 "/>
<path fill="#E2B38A" d="M17.867,27.686c-1.4-1.504-2.6-3.131-3.021-5.196c-0.132-0.646-0.552-0.949-1.041-1.321  c-1.815-1.377-2.385-3.536-1.61-5.745c0.983-0.231,1.555,0.019,1.722,1.148c0.1,0.685,0.144,1.521,1.206,2.305  c-0.364-2.316-0.785-4.209-0.938-6.125c-0.256-3.258,1.795-5.12,4.835-4.328c2.498,0.652,4.837,0.486,7.104-0.654  c1.444-0.726,2.608-0.305,3.83,0.546c1.785,1.243,1.51,3.077,1.537,4.833c0.021,1.436-0.021,2.875-0.035,4.482  c1.289-0.489,0.578-2.651,2.375-2.063c1.196,1.685,0.821,4.187-1.041,5.469c-0.904,0.624-1.361,1.363-1.65,2.317  c-0.51,1.689-0.94,3.251-2.424,4.996c-0.109-0.056-2.949,4.301-8.594,1.098C19.298,28.979,18.617,28.277,17.867,27.686z"/>
<path fill="#E2B38A" d="M33.833,15.569c-1.797-0.588-1.086,1.575-2.375,2.063c0.016-1.608,0.057-3.046,0.035-4.482  c-0.027-1.756,0.248-3.589-1.537-4.833c-1.222-0.851-2.386-1.271-3.83-0.546c-2.269,1.14-4.606,1.306-7.104,0.654  c-3.04-0.792-5.091,1.07-4.835,4.328c0.151,1.916,0.572,3.809,0.938,6.125c-1.063-0.784-1.106-1.62-1.206-2.305  c-0.167-1.129-0.737-1.379-1.722-1.148c-0.265-2.089-0.45-4.178-0.442-6.295c0.009-2.278,0.879-4.036,2.594-5.497  c5.246-4.468,13.164-4.254,18.18,0.504c1.037,0.984,1.367,2.206,1.468,3.543C34.188,10.314,34.091,12.943,33.833,15.569z"/>
</svg>