<?xml version="1.0" encoding="UTF-8"?>
<!-- Generator: Adobe Illustrator 16.0.0, SVG Export Plug-In . SVG Version: 6.00 Build 0)  -->
<!DOCTYPE svg PUBLIC "-//W3C//DTD SVG 1.1//EN" "http://www.w3.org/Graphics/SVG/1.1/DTD/svg11.dtd">
<svg version="1.1" xmlns="http://www.w3.org/2000/svg" xmlns:xlink="http://www.w3.org/1999/xlink" x="0px" y="0px" width="566.93px" height="566.93px" viewBox="0 0 566.93 566.93" enable-background="new 0 0 566.93 566.93" xml:space="preserve">
<g id="Ebene_1" display="none">
	<linearGradient id="SVGID_1_" gradientUnits="userSpaceOnUse" x1="285.5693" y1="501.1191" x2="285.5693" y2="83.3345">
		<stop offset="0" style="stop-color:#F8A911"/>
		<stop offset="1" style="stop-color:#FFD209"/>
	</linearGradient>
	<path display="inline" fill="url(#SVGID_1_)" d="M479.117,141.253c-3.152-11.483-8.025-20.702-14.837-27.735   c-7.033-6.816-16.255-11.688-27.735-14.837c-39.632-10.888-93.917-15.097-150.975-15.347   c-57.059,0.25-111.346,4.456-150.976,15.344c-11.48,3.153-20.701,8.024-27.735,14.837c-6.812,7.033-11.684,16.255-14.837,27.735   c-10.886,39.63-15.093,93.916-15.345,150.977c0.252,57.057,4.458,111.347,15.345,150.977c3.153,11.477,8.026,20.698,14.837,27.731   c7.033,6.813,16.255,11.685,27.735,14.841c39.631,10.884,93.917,15.093,150.976,15.344c57.056-0.251,111.343-4.46,150.974-15.344   c11.481-3.156,20.701-8.027,27.735-14.841c6.813-7.033,11.686-16.255,14.837-27.731c10.887-39.634,15.093-93.92,15.347-150.977   C494.213,235.169,490.005,180.88,479.117,141.253z"/>
	<g display="inline" opacity="0.7">
		<path fill="#FFD209" d="M285.57,86.334c63.863,0.28,114.391,5.408,150.181,15.24c11.146,3.057,19.784,7.659,26.408,14.065    c6.405,6.628,11.007,15.267,14.065,26.409c9.831,35.783,14.958,86.314,15.238,150.165c-0.284,63.883-5.411,114.416-15.239,150.196    c-3.06,11.14-7.66,19.776-14.065,26.403c-6.624,6.403-15.264,11.006-26.409,14.07c-35.791,9.829-86.323,14.955-150.166,15.236    c-63.869-0.281-114.402-5.407-150.193-15.236c-11.148-3.065-19.787-7.667-26.409-14.069c-6.404-6.626-11.005-15.264-14.066-26.405    c-9.83-35.778-14.956-86.312-15.238-150.168c0.282-63.879,5.409-114.412,15.238-150.196c3.061-11.144,7.662-19.782,14.066-26.408    c6.626-6.404,15.265-11.005,26.409-14.065C171.168,91.741,221.696,86.614,285.57,86.334 M285.57,83.334    c-57.059,0.25-111.346,4.456-150.976,15.344c-11.48,3.153-20.701,8.024-27.735,14.837c-6.812,7.033-11.684,16.255-14.837,27.735    c-10.886,39.63-15.093,93.916-15.345,150.977c0.252,57.057,4.458,111.347,15.345,150.977c3.153,11.477,8.026,20.698,14.837,27.731    c7.033,6.813,16.255,11.685,27.735,14.841c39.631,10.884,93.917,15.093,150.976,15.344c57.056-0.251,111.343-4.46,150.974-15.344    c11.481-3.156,20.701-8.027,27.735-14.841c6.813-7.033,11.686-16.255,14.837-27.731c10.887-39.634,15.093-93.92,15.347-150.977    c-0.25-57.058-4.458-111.347-15.346-150.973c-3.152-11.483-8.025-20.702-14.837-27.735c-7.033-6.816-16.255-11.688-27.735-14.837    C396.913,87.793,342.628,83.584,285.57,83.334L285.57,83.334z"/>
	</g>
	<g display="inline">
		<linearGradient id="SVGID_2_" gradientUnits="userSpaceOnUse" x1="285.5693" y1="501.1191" x2="285.5693" y2="83.3345">
			<stop offset="0" style="stop-color:#E29100"/>
			<stop offset="1" style="stop-color:#FFE37E"/>
		</linearGradient>
		<path fill="url(#SVGID_2_)" d="M285.57,85.334c63.952,0.281,114.57,5.42,150.445,15.276c11.317,3.104,20.101,7.79,26.85,14.322    c6.532,6.753,11.218,15.537,14.323,26.851c9.855,35.868,14.994,86.487,15.274,150.435c-0.284,63.971-5.424,114.592-15.275,150.456    c-3.106,11.313-7.792,20.095-14.322,26.847c-6.749,6.528-15.533,11.215-26.851,14.326c-35.877,9.853-86.496,14.991-150.436,15.272    c-63.958-0.281-114.578-5.42-150.454-15.272c-11.321-3.112-20.104-7.799-26.852-14.327c-6.529-6.751-11.214-15.532-14.322-26.847    c-9.853-35.863-14.992-86.483-15.274-150.438c0.282-63.967,5.421-114.587,15.274-150.456c3.108-11.316,7.794-20.1,14.323-26.851    c6.751-6.53,15.535-11.215,26.851-14.323C170.989,90.753,221.608,85.615,285.57,85.334 M285.57,83.334    c-57.059,0.25-111.346,4.456-150.976,15.344c-11.48,3.153-20.701,8.024-27.735,14.837c-6.812,7.033-11.684,16.255-14.837,27.735    c-10.886,39.63-15.093,93.916-15.345,150.977c0.252,57.057,4.458,111.347,15.345,150.977c3.153,11.477,8.026,20.698,14.837,27.731    c7.033,6.813,16.255,11.685,27.735,14.841c39.631,10.884,93.917,15.093,150.976,15.344c57.056-0.251,111.343-4.46,150.974-15.344    c11.481-3.156,20.701-8.027,27.735-14.841c6.813-7.033,11.686-16.255,14.837-27.731c10.887-39.634,15.093-93.92,15.347-150.977    c-0.25-57.058-4.458-111.347-15.346-150.973c-3.152-11.483-8.025-20.702-14.837-27.735c-7.033-6.816-16.255-11.688-27.735-14.837    C396.913,87.793,342.628,83.584,285.57,83.334L285.57,83.334z"/>
	</g>
</g>
<g id="Ebene_3" display="none">
	<path display="inline" fill="#FFFFFF" d="M236.781,363.695l-26.228,4.69l-1.954-10.922l28.181-5.04V339.94l-30.346,5.424   l-1.953-10.922l32.298-5.772v-31.484l-37.749,6.75l-1.954-10.921l39.703-7.101v-12.475l-41.867,7.49l-1.954-10.922l43.82-7.839   v-26.729l-48.455,8.665l-1.954-10.922l50.408-9.015v-12.478l-52.572,9.401l-1.954-10.923l54.526-9.75l11.008,2.619l60.517-8.264   l-33.42-23.259c-9.767-6.827-14.91-5.895-26.366-3.851l-91.228,16.354l40.142,223.925l39.347-7.056V363.695z"/>
	<path display="inline" fill="#FFFFFF" d="M405.309,266.547c0-11.637,0-16.845-8.408-25.261l-42.15-42.114   c-8.423-8.438-13.646-8.43-25.29-8.423l-92.679,0.036l0.108,227.501l168.492-0.087L405.309,266.547z M256.761,220.922h85.311   v11.096h-85.311V220.922z M256.761,244.298h119.292v11.096H256.761V244.298z M256.761,281.703h119.292v11.095H256.761V281.703z    M256.761,305.085h119.292v11.096H256.761V305.085z M342.072,381.648h-85.311v-11.096h85.311V381.648z M342.072,358.273h-85.311   v-11.096h85.311V358.273z M371.314,360.082l0.045,4.103l-9.742,0.108l-0.037,0.815l0.013,1.096l0.055,0.769l8.273-0.092   l0.047,4.148l-7.878,0.088c0.835,3.767,3.349,5.627,7.544,5.58c2.222-0.024,4.354-0.492,6.395-1.4l0.066,5.967   c-1.791,0.938-4.063,1.421-6.813,1.451c-3.807,0.043-6.949-0.956-9.427-2.995c-2.478-2.04-4.056-4.881-4.733-8.525l-3.192,0.036   l-0.047-4.148l2.75-0.031c-0.065-0.355-0.103-0.838-0.109-1.443l0.033-1.235l-2.703,0.03l-0.046-4.103l3.1-0.035   c0.532-3.767,2.045-6.755,4.538-8.966s5.627-3.338,9.403-3.38c2.921-0.033,5.662,0.574,8.225,1.82l-2.224,5.431   c-1.077-0.47-2.083-0.834-3.019-1.097c-0.936-0.261-1.908-0.386-2.919-0.374c-1.896,0.021-3.451,0.586-4.665,1.694   c-1.216,1.108-1.991,2.706-2.324,4.793L371.314,360.082z"/>
</g>
<g id="Ebene_4">
	<linearGradient id="SVGID_3_" gradientUnits="userSpaceOnUse" x1="283.4653" y1="566.9297" x2="283.4653" y2="4.882813e-004">
		<stop offset="0" style="stop-color:#F8A911"/>
		<stop offset="1" style="stop-color:#FFD209"/>
	</linearGradient>
	<rect fill="url(#SVGID_3_)" width="566.93" height="566.93"/>
	<path fill="#FFFFFF" d="M205.251,404.881l-43.176,7.722l-3.216-17.98l46.393-8.297v-20.551l-49.956,8.929l-3.214-17.979   l53.17-9.503v-51.83l-62.144,11.111l-3.216-17.978l65.359-11.689v-20.536l-68.922,12.33l-3.216-17.98l72.138-12.905V193.74   l-79.767,14.265l-3.216-17.981l82.983-14.84v-20.542l-86.546,15.476l-3.216-17.981l89.762-16.051l18.122,4.312l99.625-13.604   L267.98,88.504c-16.078-11.238-24.545-9.705-43.405-6.339L74.394,109.089l66.083,368.633l64.774-11.615V404.881z"/>
	<path fill="#FFFFFF" d="M482.688,244.952c0-19.157,0-27.731-13.842-41.585l-69.39-69.329   c-13.865-13.89-22.463-13.878-41.633-13.866l-152.572,0.06l0.178,374.521l277.377-0.144L482.688,244.952z M238.144,169.843h140.442   v18.266H238.144V169.843z M238.144,208.325h196.381v18.266H238.144V208.325z M238.144,269.902h196.381v18.265H238.144V269.902z    M238.144,308.395h196.381v18.266H238.144V308.395z M378.586,434.436H238.144V416.17h140.442V434.436z M378.586,395.955H238.144   v-18.266h140.442V395.955z M426.726,398.933l0.074,6.754l-16.038,0.178l-0.062,1.343l0.021,1.804l0.09,1.266l13.62-0.151   l0.077,6.829l-12.97,0.145c1.375,6.201,5.513,9.264,12.42,9.187c3.657-0.04,7.167-0.811,10.526-2.306l0.109,9.823   c-2.948,1.543-6.688,2.339-11.217,2.389c-6.267,0.07-11.439-1.574-15.519-4.931c-4.078-3.358-6.676-8.035-7.792-14.035l-5.255,0.06   l-0.078-6.829l4.527-0.052c-0.107-0.585-0.169-1.379-0.18-2.376l0.055-2.033l-4.45,0.05l-0.075-6.754l5.103-0.058   c0.876-6.201,3.366-11.12,7.471-14.76s9.263-5.495,15.479-5.564c4.809-0.055,9.321,0.945,13.54,2.997l-3.66,8.939   c-1.773-0.773-3.43-1.373-4.97-1.805c-1.54-0.43-3.142-0.636-4.806-0.616c-3.12,0.034-5.681,0.965-7.68,2.789   c-2.001,1.825-3.277,4.455-3.826,7.891L426.726,398.933z"/>
</g>
</svg>