<?xml version="1.0" encoding="utf-8"?>
<!-- Generator: Adobe Illustrator 20.1.0, SVG Export Plug-In . SVG Version: 6.00 Build 0)  -->
<svg version="1.1" id="Capa_1" xmlns="http://www.w3.org/2000/svg" xmlns:xlink="http://www.w3.org/1999/xlink" x="0px" y="0px"
	 viewBox="0 0 566.9 566.9" style="enable-background:new 0 0 566.9 566.9;" xml:space="preserve">
<style type="text/css">
	.st0{display:none;}
	.st1{display:inline;fill:url(#SVGID_1_);}
	.st2{display:inline;opacity:0.7;}
	.st3{fill:#FFD209;}
	.st4{display:inline;}
	.st5{fill:url(#SVGID_2_);}
	.st6{display:inline;fill:#FFFFFF;}
	.st7{fill:url(#SVGID_3_);}
	.st8{fill:url(#SVGID_4_);}
	.st9{fill:url(#SVGID_5_);}
</style>
<g id="Ebene_1" class="st0">
	
		<linearGradient id="SVGID_1_" gradientUnits="userSpaceOnUse" x1="285.57" y1="64.08" x2="285.57" y2="481.866" gradientTransform="matrix(1 0 0 -1 0 565.2)">
		<stop  offset="0" style="stop-color:#F8A911"/>
		<stop  offset="1" style="stop-color:#FFD209"/>
	</linearGradient>
	<path class="st1" d="M479.1,141.3c-3.2-11.5-8-20.7-14.8-27.7c-7-6.8-16.3-11.7-27.7-14.8c-39.6-10.9-93.9-15.1-151-15.3
		c-57.1,0.3-111.3,4.5-151,15.3c-11.5,3.2-20.7,8-27.7,14.8c-6.8,7-11.7,16.3-14.8,27.7c-10.9,39.6-15.1,93.9-15.3,151
		c0.3,57.1,4.5,111.3,15.3,151c3.2,11.5,8,20.7,14.8,27.7c7,6.8,16.3,11.7,27.7,14.8c39.6,10.9,93.9,15.1,151,15.3
		c57.1-0.3,111.3-4.5,151-15.3c11.5-3.2,20.7-8,27.7-14.8c6.8-7,11.7-16.3,14.8-27.7c10.9-39.6,15.1-93.9,15.3-151
		C494.2,235.2,490,180.9,479.1,141.3z"/>
	<g class="st2">
		<path class="st3" d="M285.6,86.3c63.9,0.3,114.4,5.4,150.2,15.2c11.1,3.1,19.8,7.7,26.4,14.1c6.4,6.6,11,15.3,14.1,26.4
			c9.8,35.8,15,86.3,15.2,150.2c-0.3,63.9-5.4,114.4-15.2,150.2c-3.1,11.1-7.7,19.8-14.1,26.4c-6.6,6.4-15.3,11-26.4,14.1
			c-35.8,9.8-86.3,15-150.2,15.2c-63.9-0.3-114.4-5.4-150.2-15.2c-11.1-3.1-19.8-7.7-26.4-14.1c-6.4-6.6-11-15.3-14.1-26.4
			c-9.8-35.8-15-86.3-15.2-150.2C80,228.4,85.1,177.8,94.9,142c3.1-11.1,7.7-19.8,14.1-26.4c6.6-6.4,15.3-11,26.4-14.1
			C171.2,91.7,221.7,86.6,285.6,86.3 M285.6,83.3c-57.1,0.3-111.3,4.5-151,15.3c-11.5,3.2-20.7,8-27.7,14.8
			c-6.8,7-11.7,16.3-14.8,27.7c-10.9,39.6-15.1,93.9-15.3,151c0.3,57.1,4.5,111.3,15.3,151c3.2,11.5,8,20.7,14.8,27.7
			c7,6.8,16.3,11.7,27.7,14.8c39.6,10.9,93.9,15.1,151,15.3c57.1-0.3,111.3-4.5,151-15.3c11.5-3.2,20.7-8,27.7-14.8
			c6.8-7,11.7-16.3,14.8-27.7c10.9-39.6,15.1-93.9,15.3-151c-0.3-57.1-4.5-111.3-15.3-151c-3.2-11.5-8-20.7-14.8-27.7
			c-7-6.8-16.3-11.7-27.7-14.8C396.9,87.8,342.6,83.6,285.6,83.3L285.6,83.3z"/>
	</g>
	<g class="st4">
		
			<linearGradient id="SVGID_2_" gradientUnits="userSpaceOnUse" x1="285.57" y1="64.08" x2="285.57" y2="481.866" gradientTransform="matrix(1 0 0 -1 0 565.2)">
			<stop  offset="0" style="stop-color:#E29100"/>
			<stop  offset="1" style="stop-color:#FFE37E"/>
		</linearGradient>
		<path class="st5" d="M285.6,85.3c64,0.3,114.6,5.4,150.4,15.3c11.3,3.1,20.1,7.8,26.9,14.3c6.5,6.8,11.2,15.5,14.3,26.9
			c9.9,35.9,15,86.5,15.3,150.4c-0.3,64-5.4,114.6-15.3,150.5c-3.1,11.3-7.8,20.1-14.3,26.8c-6.7,6.5-15.5,11.2-26.9,14.3
			c-35.9,9.9-86.5,15-150.4,15.3c-64-0.3-114.6-5.4-150.5-15.3c-11.3-3.1-20.1-7.8-26.9-14.3c-6.5-6.8-11.2-15.5-14.3-26.8
			c-9.9-35.9-15-86.5-15.3-150.4c0.3-64,5.4-114.6,15.3-150.5c3.1-11.3,7.8-20.1,14.3-26.9c6.8-6.5,15.5-11.2,26.9-14.3
			C171,90.8,221.6,85.6,285.6,85.3 M285.6,83.3c-57.1,0.3-111.3,4.5-151,15.3c-11.5,3.2-20.7,8-27.7,14.8
			c-6.8,7-11.7,16.3-14.8,27.7c-10.9,39.6-15.1,93.9-15.3,151c0.3,57.1,4.5,111.3,15.3,151c3.2,11.5,8,20.7,14.8,27.7
			c7,6.8,16.3,11.7,27.7,14.8c39.6,10.9,93.9,15.1,151,15.3c57.1-0.3,111.3-4.5,151-15.3c11.5-3.2,20.7-8,27.7-14.8
			c6.8-7,11.7-16.3,14.8-27.7c10.9-39.6,15.1-93.9,15.3-151c-0.3-57.1-4.5-111.3-15.3-151c-3.2-11.5-8-20.7-14.8-27.7
			c-7-6.8-16.3-11.7-27.7-14.8C396.9,87.8,342.6,83.6,285.6,83.3L285.6,83.3z"/>
	</g>
</g>
<g id="Ebene_3" class="st0">
	<path class="st6" d="M236.8,363.7l-26.2,4.7l-2-10.9l28.2-5v-12.5l-30.3,5.4l-2-10.9l32.3-5.8v-31.5l-37.7,6.8l-2-10.9l39.7-7.1
		v-12.5l-41.9,7.5l-2-10.9l43.8-7.8v-26.7l-48.5,8.7l-2-10.9l50.4-9v-12.5l-52.6,9.4l-2-10.9l54.5-9.8l11,2.6l60.5-8.3l-33.4-23.3
		c-9.8-6.8-14.9-5.9-26.4-3.9L157.3,184l40.1,223.9l39.3-7.1L236.8,363.7L236.8,363.7z"/>
	<path class="st6" d="M405.3,266.5c0-11.6,0-16.8-8.4-25.3l-42.1-42.1c-8.4-8.4-13.6-8.4-25.3-8.4l-92.7,0l0.1,227.5l168.5-0.1
		L405.3,266.5z M256.8,220.9h85.3V232h-85.3V220.9z M256.8,244.3h119.3v11.1H256.8V244.3z M256.8,281.7h119.3v11.1H256.8V281.7z
		 M256.8,305.1h119.3v11.1H256.8V305.1z M342.1,381.6h-85.3v-11.1h85.3V381.6z M342.1,358.3h-85.3v-11.1h85.3V358.3z M371.3,360.1
		l0,4.1l-9.7,0.1l0,0.8l0,1.1l0.1,0.8l8.3-0.1l0,4.1l-7.9,0.1c0.8,3.8,3.3,5.6,7.5,5.6c2.2,0,4.4-0.5,6.4-1.4l0.1,6
		c-1.8,0.9-4.1,1.4-6.8,1.5c-3.8,0-6.9-1-9.4-3c-2.5-2-4.1-4.9-4.7-8.5l-3.2,0l0-4.1l2.8,0c-0.1-0.4-0.1-0.8-0.1-1.4l0-1.2l-2.7,0
		l0-4.1l3.1,0c0.5-3.8,2-6.8,4.5-9s5.6-3.3,9.4-3.4c2.9,0,5.7,0.6,8.2,1.8l-2.2,5.4c-1.1-0.5-2.1-0.8-3-1.1
		c-0.9-0.3-1.9-0.4-2.9-0.4c-1.9,0-3.5,0.6-4.7,1.7c-1.2,1.1-2,2.7-2.3,4.8L371.3,360.1z"/>
</g>
<linearGradient id="SVGID_3_" gradientUnits="userSpaceOnUse" x1="283.465" y1="-1.73" x2="283.465" y2="565.2" gradientTransform="matrix(1 0 0 -1 0 565.2)">
	<stop  offset="0" style="stop-color:#F8A911"/>
	<stop  offset="1" style="stop-color:#FFD209"/>
</linearGradient>
<rect y="0" class="st7" width="566.9" height="566.9"/>
<g>
	<linearGradient id="SVGID_4_" gradientUnits="userSpaceOnUse" x1="149.7409" y1="369.1912" x2="426.5123" y2="369.1912">
		<stop  offset="0" style="stop-color:#F1F1F2"/>
		<stop  offset="9.222478e-02" style="stop-color:#F6F6F7"/>
		<stop  offset="0.3324" style="stop-color:#FDFDFD"/>
		<stop  offset="1" style="stop-color:#FFFFFF"/>
	</linearGradient>
	<path class="st8" d="M387.6,327.6c-52.6-19.3-52.6-19.3-52.6-19.3l-46.9,44.3l-46.9-44.3c0,0,0,0-52.6,19.3
		c-49,18.1-38.6,91.5-36.9,101.2l-2,1.2h2.2h272.3h2.2l-2.1-1.2C426.1,419.1,436.6,345.8,387.6,327.6z"/>
	<linearGradient id="SVGID_5_" gradientUnits="userSpaceOnUse" x1="213.0634" y1="219.8929" x2="363.1897" y2="219.8929">
		<stop  offset="0" style="stop-color:#F1F1F2"/>
		<stop  offset="9.222478e-02" style="stop-color:#F6F6F7"/>
		<stop  offset="0.3324" style="stop-color:#FDFDFD"/>
		<stop  offset="1" style="stop-color:#FFFFFF"/>
	</linearGradient>
	<circle class="st9" cx="288.1" cy="219.9" r="75.1"/>
</g>
</svg>
