<?xml version="1.0" encoding="utf-8"?>
<!-- Generator: Adobe Illustrator 16.0.0, SVG Export Plug-In . SVG Version: 6.00 Build 0)  -->
<!DOCTYPE svg PUBLIC "-//W3C//DTD SVG 1.1//EN" "http://www.w3.org/Graphics/SVG/1.1/DTD/svg11.dtd">
<svg version="1.1" xmlns="http://www.w3.org/2000/svg" xmlns:xlink="http://www.w3.org/1999/xlink" x="0px" y="0px"
	 width="566.93px" height="566.93px" viewBox="0 0 566.93 566.93" enable-background="new 0 0 566.93 566.93" xml:space="preserve">
<g id="Ebene_1" display="none">
	<linearGradient id="SVGID_1_" gradientUnits="userSpaceOnUse" x1="285.5693" y1="501.1191" x2="285.5693" y2="83.3345">
		<stop  offset="0" style="stop-color:#F8A911"/>
		<stop  offset="1" style="stop-color:#FFD209"/>
	</linearGradient>
	<path display="inline" fill="url(#SVGID_1_)" d="M479.117,141.253c-3.152-11.483-8.025-20.702-14.837-27.735
		c-7.033-6.816-16.255-11.688-27.735-14.837c-39.632-10.888-93.917-15.097-150.975-15.347
		c-57.059,0.25-111.346,4.456-150.976,15.344c-11.48,3.153-20.701,8.024-27.735,14.837c-6.812,7.033-11.684,16.255-14.837,27.735
		c-10.886,39.63-15.093,93.916-15.345,150.977c0.252,57.057,4.458,111.347,15.345,150.977c3.153,11.477,8.026,20.698,14.837,27.731
		c7.033,6.813,16.255,11.685,27.735,14.841c39.631,10.884,93.917,15.093,150.976,15.344c57.056-0.251,111.343-4.46,150.974-15.344
		c11.481-3.156,20.701-8.027,27.735-14.841c6.813-7.033,11.686-16.255,14.837-27.731c10.887-39.634,15.093-93.92,15.347-150.977
		C494.213,235.169,490.005,180.88,479.117,141.253z"/>
	<g display="inline" opacity="0.7">
		<path fill="#FFD209" d="M285.57,86.334c63.863,0.28,114.391,5.408,150.181,15.24c11.146,3.057,19.784,7.659,26.408,14.065
			c6.405,6.628,11.007,15.267,14.065,26.409c9.831,35.783,14.958,86.314,15.238,150.165c-0.284,63.883-5.411,114.416-15.239,150.196
			c-3.06,11.14-7.66,19.776-14.065,26.403c-6.624,6.403-15.264,11.006-26.409,14.07c-35.791,9.829-86.323,14.955-150.166,15.236
			c-63.869-0.281-114.402-5.407-150.193-15.236c-11.148-3.065-19.787-7.667-26.409-14.069c-6.404-6.626-11.005-15.264-14.066-26.405
			c-9.83-35.778-14.956-86.312-15.238-150.168c0.282-63.879,5.409-114.412,15.238-150.196c3.061-11.144,7.662-19.782,14.066-26.408
			c6.626-6.404,15.265-11.005,26.409-14.065C171.168,91.741,221.696,86.614,285.57,86.334 M285.57,83.334
			c-57.059,0.25-111.346,4.456-150.976,15.344c-11.48,3.153-20.701,8.024-27.735,14.837c-6.812,7.033-11.684,16.255-14.837,27.735
			c-10.886,39.63-15.093,93.916-15.345,150.977c0.252,57.057,4.458,111.347,15.345,150.977c3.153,11.477,8.026,20.698,14.837,27.731
			c7.033,6.813,16.255,11.685,27.735,14.841c39.631,10.884,93.917,15.093,150.976,15.344c57.056-0.251,111.343-4.46,150.974-15.344
			c11.481-3.156,20.701-8.027,27.735-14.841c6.813-7.033,11.686-16.255,14.837-27.731c10.887-39.634,15.093-93.92,15.347-150.977
			c-0.25-57.058-4.458-111.347-15.346-150.973c-3.152-11.483-8.025-20.702-14.837-27.735c-7.033-6.816-16.255-11.688-27.735-14.837
			C396.913,87.793,342.628,83.584,285.57,83.334L285.57,83.334z"/>
	</g>
	<g display="inline">
		<linearGradient id="SVGID_2_" gradientUnits="userSpaceOnUse" x1="285.5693" y1="501.1191" x2="285.5693" y2="83.3345">
			<stop  offset="0" style="stop-color:#E29100"/>
			<stop  offset="1" style="stop-color:#FFE37E"/>
		</linearGradient>
		<path fill="url(#SVGID_2_)" d="M285.57,85.334c63.952,0.281,114.57,5.42,150.445,15.276c11.317,3.104,20.101,7.79,26.85,14.322
			c6.532,6.753,11.218,15.537,14.323,26.851c9.855,35.868,14.994,86.487,15.274,150.435c-0.284,63.971-5.424,114.592-15.275,150.456
			c-3.106,11.313-7.792,20.095-14.322,26.847c-6.749,6.528-15.533,11.215-26.851,14.326c-35.877,9.853-86.496,14.991-150.436,15.272
			c-63.958-0.281-114.578-5.42-150.454-15.272c-11.321-3.112-20.104-7.799-26.852-14.327c-6.529-6.751-11.214-15.532-14.322-26.847
			c-9.853-35.863-14.992-86.483-15.274-150.438c0.282-63.967,5.421-114.587,15.274-150.456c3.108-11.316,7.794-20.1,14.323-26.851
			c6.751-6.53,15.535-11.215,26.851-14.323C170.989,90.753,221.608,85.615,285.57,85.334 M285.57,83.334
			c-57.059,0.25-111.346,4.456-150.976,15.344c-11.48,3.153-20.701,8.024-27.735,14.837c-6.812,7.033-11.684,16.255-14.837,27.735
			c-10.886,39.63-15.093,93.916-15.345,150.977c0.252,57.057,4.458,111.347,15.345,150.977c3.153,11.477,8.026,20.698,14.837,27.731
			c7.033,6.813,16.255,11.685,27.735,14.841c39.631,10.884,93.917,15.093,150.976,15.344c57.056-0.251,111.343-4.46,150.974-15.344
			c11.481-3.156,20.701-8.027,27.735-14.841c6.813-7.033,11.686-16.255,14.837-27.731c10.887-39.634,15.093-93.92,15.347-150.977
			c-0.25-57.058-4.458-111.347-15.346-150.973c-3.152-11.483-8.025-20.702-14.837-27.735c-7.033-6.816-16.255-11.688-27.735-14.837
			C396.913,87.793,342.628,83.584,285.57,83.334L285.57,83.334z"/>
	</g>
</g>
<g id="Ebene_3" display="none">
	<g display="inline">
		<path fill="#FFFFFF" d="M296.673,203.247c-0.308,0-0.541,0.004-0.717,0.026c-3.977,0.446-43.109,15.17-57.743,23.006
			c-2.149,1.148-6.198,4.759-6.345,8.3c-0.059,1.868,1.038,3.534,3.26,4.956c2.164,1.374,5.468,2.072,9.854,2.072
			c9.093,0,19.575-3.056,19.677-3.085c1.9-0.669,19.136-6.71,23.141-6.71c4.736,0.274,60.479,48.437,78.489,64.092l34.397-14.823
			l-27.366-68.667C366.039,211.419,306.102,203.247,296.673,203.247z"/>
		<path fill="#FFFFFF" d="M397.527,193.167c-0.979,0-1.915,0.179-2.821,0.538l-11.389,4.506c-1.899,0.753-3.391,2.204-4.21,4.082
			c-0.817,1.879-0.847,3.962-0.088,5.862l28.551,72.123c1.521,3.84,6.067,5.847,9.941,4.309l11.388-4.506
			c1.9-0.757,3.392-2.205,4.211-4.087c0.818-1.875,0.848-3.958,0.087-5.862l-28.551-72.121
			C403.478,195.064,400.686,193.167,397.527,193.167z"/>
		<path fill="#FFFFFF" d="M137.417,292.092c-0.161,2.039,0.497,4.017,1.827,5.569c1.331,1.554,3.187,2.493,5.233,2.646l12.207,0.926
			c4.254,0.34,7.909-2.898,8.216-7.064l6.111-81.054c0.146-2.039-0.497-4.02-1.842-5.569c-1.331-1.553-3.187-2.493-5.234-2.646
			l-12.206-0.92c-0.19-0.019-0.395-0.026-0.585-0.026c-3.977,0-7.324,3.114-7.631,7.086L137.417,292.092z"/>
		<path fill="#FFFFFF" d="M259.161,364.234c-0.482-2.613-2.076-5.099-4.619-7.18c-5.175-4.237-10.438-3.554-15.043,2.075
			l-5.555,6.709l-0.672,0.898l-4.795,5.86c-6.535,7.992-0.19,14.219,1.901,15.938c2.236,1.827,4.488,2.751,6.695,2.751
			c2.909,0,5.716-1.623,8.347-4.827l8.114-9.927v-0.002l2.909-3.542C258.782,370.129,259.702,367.185,259.161,364.234z"/>
		<path fill="#FFFFFF" d="M201.446,359.587c-4.005,4.894-2.997,9.225,3.377,14.449c5.175,4.233,10.438,3.552,15.042-2.075
			l14.063-16.818c6.535-7.986,0.19-14.213-1.9-15.932c-5.175-4.235-10.438-3.552-15.043,2.076l-7.704,9.165l0.015,0.016
			l-0.804,1.012L201.446,359.587z"/>
		<path fill="#FFFFFF" d="M181.024,339.164c-2.325,2.831-3.231,5.778-2.705,8.727c0.482,2.614,2.076,5.099,4.634,7.182
			c5.16,4.235,10.423,3.548,15.028-2.075l15.525-18.277c2.339-2.858,3.246-5.803,2.719-8.754c-0.482-2.616-2.076-5.098-4.62-7.182
			c-5.175-4.235-10.438-3.548-15.042,2.078l-7.719,9.187l0.015,0.012l-0.79,0.994L181.024,339.164z"/>
		<path fill="#FFFFFF" d="M177.676,332.451l15.409-18.154c6.534-7.988,0.19-14.217-1.901-15.934
			c-5.175-4.236-10.438-3.558-15.042,2.076l-5.043,6.441l0.059,0.041l-0.819,1.012l-7.032,8.107
			c-2.602,2.999-3.786,5.912-3.523,8.668c0.277,3.038,2.251,5.03,3.406,5.947c2.616,2.09,5.569,4.44,8.756,4.44
			C173.89,335.097,175.761,334.229,177.676,332.451z"/>
		<path fill="#FFFFFF" d="M362.019,316.604c3.274-4.028,5.687-10.043-1.447-15.846l-5.569-5.169
			c-27.922-24.153-60.785-51.827-68.079-56.475c-3.509,0.698-12.704,3.622-19.94,6.177l-0.292,0.099
			c-0.482,0.139-11.623,3.373-21.709,3.373c-5.848,0-10.321-1.042-13.684-3.187c-5.95-3.787-6.666-8.688-6.578-11.271
			c0.249-6.337,5.584-11.655,9.488-13.979l-56.327-6.998l-5.789,81.231c4.576-4.816,9.196-5.878,12.397-5.878
			c3.801,0,7.631,1.492,11.081,4.318c5.424,4.437,7.953,10.28,7.134,16.285c4.678-0.752,9.181,0.775,13.289,4.138
			c5.423,4.437,7.953,10.284,7.134,16.285c4.678-0.742,9.18,0.774,13.289,4.138c4.692,3.833,7.265,8.901,7.265,14.146
			c5.161-1.531,10.54-0.158,15.247,3.698c6.521,5.333,8.815,12.659,6.271,19.753l4.854,3.952c0.38,0.307,0.76,0.588,1.125,0.844
			l0.22,0.139c2.002,1.345,3.991,2.024,5.891,2.024c3.522,0,6.14-2.296,7.704-4.218c3.377-4.163,5.438-7.441,1.185-11.804
			l-0.352-0.359l-25.07-21.244c-0.818-0.693-1.33-1.666-1.418-2.738c-0.088-1.069,0.249-2.11,0.95-2.935
			c1.374-1.624,4.035-1.849,5.672-0.467l32.79,27.79c1.695,0.986,3.611,1.549,5.525,1.549c3.318,0,6.506-1.666,8.962-4.696
			c2.047-2.503,2.981-5.229,2.718-7.883c-0.277-2.853-1.973-5.624-4.896-8.008l-3.888-3.163l0.029-0.037l-18.201-14.809
			c-0.834-0.676-1.359-1.639-1.463-2.709c-0.116-1.067,0.205-2.116,0.878-2.952c1.345-1.656,4.006-1.933,5.658-0.582l29.997,24.377
			c2.193,1.787,4.531,2.694,6.959,2.694c3.537,0,7.192-1.993,10.014-5.465c2.178-2.682,3.187-5.368,2.981-7.984
			c-0.219-2.801-1.841-5.442-4.81-7.861l-8.8-7.156l0.029-0.029l-15.628-12.714c-1.725-1.4-1.988-3.94-0.584-5.663
			c1.344-1.657,3.991-1.937,5.656-0.58l25.467,20.7C350.763,323.848,357.15,322.574,362.019,316.604z"/>
	</g>
</g>
<g id="Ebene_4">
	<linearGradient id="SVGID_3_" gradientUnits="userSpaceOnUse" x1="284.4648" y1="566.9297" x2="284.4648" y2="4.882813e-004">
		<stop  offset="0" style="stop-color:#F8A911"/>
		<stop  offset="1" style="stop-color:#FFD209"/>
	</linearGradient>
	<rect x="1" fill="url(#SVGID_3_)" width="566.93" height="566.93"/>
	<g>
		<path fill-rule="evenodd" clip-rule="evenodd" fill="#FFFFFF" d="M511.946,150.243c0-29.608-16.147-45.553-45.852-45.584
			c-60.427-0.03-120.863,0-181.317,0c-60.665,0-121.373-0.03-182.089,0c-29.144,0-45.686,16.125-45.686,44.979
			c-0.104,89.188-0.104,178.338,0,267.505c0,29.037,16.384,45.141,45.475,45.141c121.443,0,242.841,0,364.258,0
			c28.994,0,45.211-16.146,45.211-45.359C512.033,328.045,512.016,239.133,511.946,150.243z M479.784,416.037
			c0,11.838-2.027,13.856-13.522,13.856c-121.118,0.053-242.193,0.053-363.284,0c-11.619,0-13.848-2.089-13.848-13.61
			c-0.044-66.896-0.044-133.799,0-200.729c0-11.355,2.291-13.497,14.015-13.497c60.409,0,120.811,0,181.246,0
			c60.385,0,120.812,0,181.204,0c12.269,0,14.189,1.887,14.189,14.103C479.829,282.782,479.829,349.405,479.784,416.037z"/>
		<path fill-rule="evenodd" clip-rule="evenodd" fill="#FFFFFF" d="M317.01,267.127c39.279,0,78.522,0,117.801-0.017
			c9.82,0,11.864-2.142,12.11-11.873c0.044-2.186,0-4.317,0-6.477c-0.062-12.374-1.686-13.997-14.138-13.997
			c-75.548-0.018-151.068,0-226.634,0c-19.104,0-19.384,0.289-19.086,19.63c0.149,10.714,2.159,12.733,12.969,12.733
			C239.014,267.127,278.047,267.127,317.01,267.127z"/>
		<path fill-rule="evenodd" clip-rule="evenodd" fill="#FFFFFF" d="M316.668,332.161c39.269,0,78.504,0.045,117.8,0
			c10.32,0,12.276-1.982,12.453-12.329c0.044-2.159,0-4.317,0-6.493c-0.088-11.812-1.791-13.515-13.777-13.515
			c-75.539,0-151.095,0-226.651,0c-19.49,0-19.833,0.342-19.429,20.096c0.219,10.188,2.264,12.241,12.636,12.241
			C238.663,332.206,277.678,332.161,316.668,332.161z"/>
		<path fill-rule="evenodd" clip-rule="evenodd" fill="#FFFFFF" d="M316.518,397.231c39.561,0,79.084,0.026,118.617,0
			c9.329-0.045,11.531-2.229,11.76-11.391c0.07-2.449,0.026-4.879,0.026-7.327c-0.088-11.943-1.729-13.62-13.638-13.62
			c-76.118,0-152.165,0-228.248,0c-17.708,0-18.104,0.387-17.972,18.349c0,0.537,0,1.08,0,1.598
			c0.193,10.25,2.264,12.392,12.531,12.392C238.575,397.258,277.555,397.231,316.518,397.231z"/>
		<path fill-rule="evenodd" clip-rule="evenodd" fill="#FFFFFF" d="M138.491,234.764c-15.462-0.018-16.454,0.956-16.454,15.62
			c-0.035,15.542,0.992,16.726,14.505,16.743c17.033,0,17.622-0.509,17.622-15.989C154.19,235.614,153.339,234.764,138.491,234.764z
			"/>
		<path fill-rule="evenodd" clip-rule="evenodd" fill="#FFFFFF" d="M137.561,332.161c15.778,0,16.577-0.729,16.604-15.374
			c0.026-16.015-0.781-16.945-15.068-16.963c-16.199-0.026-17.059,0.79-17.059,15.822
			C122.002,331.239,122.88,332.161,137.561,332.161z"/>
		<path fill-rule="evenodd" clip-rule="evenodd" fill="#FFFFFF" d="M137.692,397.231c15.647,0,16.472-0.755,16.472-15.524
			c0.026-15.892-0.825-16.813-15.199-16.813c-16.103-0.044-16.928,0.729-16.928,15.928
			C122.002,396.284,122.897,397.231,137.692,397.231z"/>
		<path fill-rule="evenodd" clip-rule="evenodd" fill="#FFFFFF" d="M317.01,267.127c-38.963,0-77.996,0-116.977,0
			c-10.811,0-12.82-2.019-12.969-12.733c-0.298-19.341-0.018-19.63,19.086-19.63c75.565,0,151.086-0.018,226.634,0
			c12.452,0,14.076,1.623,14.138,13.997c0,2.159,0.044,4.291,0,6.477c-0.246,9.731-2.29,11.873-12.11,11.873
			C395.532,267.127,356.289,267.127,317.01,267.127z"/>
		<path fill-rule="evenodd" clip-rule="evenodd" fill="#FFFFFF" d="M316.668,332.161c-38.99,0-78.005,0.045-116.968,0
			c-10.373,0-12.417-2.053-12.636-12.241c-0.404-19.754-0.062-20.096,19.429-20.096c75.556,0,151.112,0,226.651,0
			c11.986,0,13.689,1.703,13.777,13.515c0,2.176,0.044,4.334,0,6.493c-0.177,10.347-2.133,12.329-12.453,12.329
			C395.172,332.206,355.937,332.161,316.668,332.161z"/>
		<path fill-rule="evenodd" clip-rule="evenodd" fill="#FFFFFF" d="M316.518,397.231c-38.962,0-77.942,0.026-116.923,0
			c-10.268,0-12.338-2.142-12.531-12.392c0-0.518,0-1.061,0-1.598c-0.132-17.962,0.263-18.349,17.972-18.349
			c76.083,0,152.13,0,228.248,0c11.908,0,13.55,1.677,13.638,13.62c0,2.448,0.044,4.878-0.026,7.327
			c-0.229,9.161-2.431,11.346-11.76,11.391C395.602,397.258,356.078,397.231,316.518,397.231z"/>
		<path fill-rule="evenodd" clip-rule="evenodd" fill="#FFFFFF" d="M138.491,234.764c14.848,0,15.699,0.851,15.673,16.375
			c0,15.48-0.588,15.989-17.622,15.989c-13.514-0.017-14.541-1.202-14.505-16.743C122.038,235.72,123.029,234.746,138.491,234.764z"
			/>
		<path fill-rule="evenodd" clip-rule="evenodd" fill="#FFFFFF" d="M137.561,332.161c-14.681,0-15.559-0.922-15.523-16.515
			c0-15.032,0.86-15.849,17.059-15.822c14.287,0.018,15.094,0.948,15.068,16.963C154.138,331.433,153.339,332.161,137.561,332.161z"
			/>
		<path fill-rule="evenodd" clip-rule="evenodd" fill="#FFFFFF" d="M137.692,397.231c-14.795,0-15.69-0.947-15.655-16.41
			c0-15.199,0.825-15.972,16.928-15.928c14.374,0,15.225,0.922,15.199,16.813C154.165,396.477,153.339,397.231,137.692,397.231z"/>
	</g>
</g>
</svg>
